<svg width="120" height="40" viewBox="0 0 120 40" fill="none" xmlns="http://www.w3.org/2000/svg">
<path d="M120 0H0V40H120V0Z" fill="#2A2A2A"/>
<path d="M13.3511 29.333V6.56802H20.2301L24.3601 22.1L28.4441 6.56802H35.3441V29.333H31.0681V11.413L26.5491 29.333H22.1241L17.6241 11.413V29.333H13.3511Z" fill="white"/>
<path d="M43.1339 17.872L39.1739 17.158C39.4996 15.7439 40.3142 14.4902 41.4739 13.618C42.9359 12.7547 44.625 12.3541 46.3189 12.469C47.8008 12.3878 49.283 12.623 50.6669 13.159C51.505 13.5186 52.2086 14.133 52.6779 14.915C53.1584 16.1559 53.3572 17.488 53.2599 18.815L53.2139 23.909C53.1858 24.9822 53.2561 26.0557 53.4239 27.116C53.5907 27.8837 53.8538 28.6273 54.2069 29.329H49.8899C49.7769 29.039 49.6359 28.609 49.4709 28.04C49.3979 27.781 49.3469 27.61 49.3159 27.527C48.6266 28.214 47.8155 28.7668 46.9239 29.157C46.0645 29.522 45.1396 29.7071 44.2059 29.701C42.7387 29.783 41.2977 29.2869 40.1919 28.319C39.7129 27.8746 39.3342 27.3329 39.0812 26.7304C38.8282 26.1279 38.7067 25.4783 38.7249 24.825C38.7099 23.9483 38.941 23.085 39.3919 22.333C39.8373 21.6023 40.488 21.0191 41.2629 20.656C42.3732 20.1739 43.5392 19.832 44.7339 19.638C46.1769 19.4122 47.5959 19.0537 48.9729 18.567V18.132C49.0057 17.8058 48.9672 17.4764 48.8599 17.1667C48.7527 16.8569 48.5794 16.5741 48.3519 16.338C47.651 15.9051 46.8263 15.717 46.0069 15.803C45.3686 15.7659 44.7344 15.9258 44.1899 16.261C43.68 16.6761 43.3111 17.2389 43.1339 17.872ZM48.9729 21.413C48.0997 21.6802 47.2136 21.9032 46.3179 22.081C45.4909 22.2086 44.6891 22.4654 43.9419 22.842C43.6813 23.0051 43.4662 23.2317 43.3169 23.5005C43.1675 23.7693 43.0888 24.0715 43.0879 24.379C43.0855 24.676 43.145 24.9702 43.2626 25.243C43.3802 25.5157 43.5533 25.7609 43.7709 25.963C44.0013 26.1851 44.2739 26.3586 44.5727 26.4732C44.8714 26.5878 45.1901 26.6411 45.5099 26.63C46.3244 26.6209 47.1143 26.3491 47.7619 25.855C48.2597 25.5029 48.6257 24.9947 48.8019 24.411C48.947 23.7115 49.0045 22.9967 48.9729 22.283V21.413Z" fill="white"/>
<path d="M57.1571 30.419L62.1411 31.019C62.1512 31.2473 62.2072 31.4713 62.3058 31.6775C62.4045 31.8837 62.5437 32.0679 62.7151 32.219C63.3024 32.5757 63.987 32.7387 64.6721 32.685C65.5564 32.7399 66.4397 32.5634 67.2351 32.173C67.6415 31.9159 67.948 31.5279 68.1041 31.073C68.2725 30.4205 68.3399 29.746 68.3041 29.073V26.66C67.7678 27.4806 67.0354 28.1545 66.1733 28.621C65.3112 29.0876 64.3464 29.3319 63.3661 29.332C62.3207 29.3558 61.2869 29.1095 60.3644 28.6171C59.442 28.1247 58.6621 27.4028 58.1001 26.521C57.0388 24.8773 56.5079 22.9473 56.5791 20.992C56.5791 18.228 57.2441 16.1163 58.5741 14.657C59.192 13.953 59.9562 13.3924 60.8133 13.0143C61.6703 12.6362 62.5995 12.4498 63.5361 12.468C64.5337 12.4644 65.5166 12.7078 66.3971 13.1767C67.2776 13.6456 68.0283 14.3253 68.5821 15.155V12.841H72.6701V27.641C72.7275 29.1098 72.5653 30.579 72.1891 32C71.9333 32.8561 71.4691 33.6354 70.8381 34.268C70.1709 34.8664 69.3777 35.3069 68.5171 35.557C67.3236 35.8981 66.085 36.0553 64.8441 36.023C62.0494 36.023 60.0671 35.544 58.8971 34.586C58.3411 34.1576 57.8929 33.6052 57.5882 32.9729C57.2835 32.3406 57.1307 31.6458 57.1421 30.944C57.1411 30.8 57.1471 30.626 57.1571 30.419ZM61.0571 20.745C60.9452 22.1051 61.3043 23.4622 62.0741 24.589C62.3703 24.9713 62.7507 25.2802 63.1857 25.4916C63.6206 25.703 64.0985 25.8113 64.5821 25.808C65.0967 25.813 65.6059 25.7034 66.0729 25.4872C66.5399 25.271 66.9529 24.9536 67.2821 24.558C68.0874 23.5 68.4786 22.1842 68.3821 20.858C68.4882 19.505 68.1143 18.1578 67.3261 17.053C67.0046 16.6566 66.5969 16.3386 66.1341 16.1234C65.6713 15.9082 65.1654 15.8013 64.6551 15.811C64.1593 15.8016 63.6681 15.9067 63.2195 16.1181C62.771 16.3295 62.3773 16.6416 62.0691 17.03C61.3111 18.1136 60.9523 19.4265 61.0541 20.745H61.0571Z" fill="white"/>
<path d="M79.8 17.05C78.8371 16.7035 78.0074 16.0635 77.4277 15.2202C76.848 14.377 76.5477 13.3731 76.569 12.35C76.5473 11.5623 76.6948 10.779 77.0015 10.0531C77.3082 9.32725 77.767 8.67555 78.347 8.14201C79.753 6.95495 81.5636 6.35762 83.4 6.47501C85.2308 6.36053 87.0355 6.95574 88.439 8.13701C89.023 8.66815 89.4856 9.31902 89.7952 10.0452C90.1048 10.7714 90.2541 11.5559 90.233 12.345C90.2493 13.3459 89.9624 14.3282 89.41 15.163C88.8395 16.0029 88.0368 16.6586 87.1 17.05C88.2635 17.4803 89.2681 18.2551 89.98 19.271C90.6446 20.2671 90.9886 21.4427 90.966 22.64C91.003 23.5868 90.8434 24.5311 90.4973 25.4132C90.1512 26.2952 89.626 27.096 88.955 27.765C88.2401 28.4358 87.3976 28.956 86.4777 29.2948C85.5578 29.6336 84.5791 29.784 83.6 29.737C81.7398 29.8045 79.9132 29.2289 78.428 28.107C77.6313 27.4839 76.9946 26.6799 76.5707 25.7617C76.1467 24.8435 75.9476 23.8375 75.99 22.827C75.9798 21.6333 76.2965 20.4595 76.906 19.433C77.5863 18.3456 78.6022 17.5091 79.8 17.05ZM80.3 22.407C80.2388 23.4275 80.5692 24.4329 81.224 25.218C81.5123 25.5435 81.868 25.8024 82.2663 25.9768C82.6647 26.1512 83.0962 26.2369 83.531 26.228C83.9518 26.2381 84.3698 26.1565 84.7559 25.9889C85.1421 25.8212 85.4871 25.5714 85.767 25.257C86.4044 24.4686 86.7205 23.4685 86.652 22.457C86.6966 21.516 86.3739 20.5945 85.752 19.887C85.4633 19.5709 85.11 19.3206 84.7161 19.1531C84.3222 18.9856 83.8969 18.9047 83.469 18.916C83.0113 18.884 82.5529 18.968 82.1364 19.1603C81.7198 19.3526 81.3585 19.6469 81.086 20.016C80.5733 20.708 80.2954 21.5458 80.293 22.407H80.3ZM80.7 12.655C80.6781 13.0263 80.7323 13.3982 80.859 13.7479C80.9857 14.0976 81.1823 14.4178 81.437 14.689C81.6983 14.9367 82.007 15.1289 82.3445 15.2542C82.682 15.3795 83.0414 15.4352 83.401 15.418C83.7649 15.4353 84.1285 15.379 84.4701 15.2523C84.8117 15.1257 85.1243 14.9314 85.389 14.681C85.6458 14.4094 85.8443 14.0881 85.9724 13.737C86.1006 13.3858 86.1555 13.0122 86.134 12.639C86.1581 12.2794 86.1053 11.9188 85.979 11.5812C85.8528 11.2436 85.656 10.9368 85.4018 10.6813C85.1476 10.4258 84.8419 10.2274 84.505 10.0994C84.168 9.97142 83.8077 9.91673 83.448 9.93901C83.0815 9.92141 82.7153 9.97836 82.3716 10.1064C82.0278 10.2345 81.7136 10.431 81.448 10.684C81.196 10.9445 80.9997 11.2537 80.8711 11.5925C80.7425 11.9314 80.6843 12.2929 80.7 12.655Z" fill="white"/>
<path d="M97.4839 17.05C96.521 16.7037 95.6912 16.0637 95.1117 15.2204C94.5321 14.3771 94.2321 13.373 94.2539 12.35C94.2321 11.5623 94.3794 10.7791 94.6859 10.0532C94.9925 9.32733 95.4511 8.6756 96.0309 8.14201C97.4922 7.0625 99.2611 6.47998 101.078 6.47998C102.895 6.47998 104.664 7.0625 106.125 8.14201C106.709 8.67332 107.171 9.32425 107.48 10.0504C107.79 10.7766 107.939 11.5609 107.918 12.35C107.935 13.3508 107.648 14.3332 107.096 15.168C106.525 16.0087 105.72 16.6644 104.782 17.055C105.946 17.4851 106.951 18.2599 107.663 19.276C108.328 20.2721 108.672 21.4477 108.649 22.645C108.686 23.5919 108.526 24.5363 108.18 25.4184C107.834 26.3005 107.308 27.1012 106.637 27.77C105.923 28.4403 105.081 28.9602 104.163 29.2989C103.244 29.6377 102.266 29.7884 101.288 29.742C99.4281 29.8095 97.6019 29.2338 96.1169 28.112C95.3203 27.4889 94.6836 26.6849 94.2596 25.7667C93.8356 24.8485 93.6366 23.8425 93.6789 22.832C93.6687 21.6383 93.9855 20.4645 94.5949 19.438C95.2728 18.3491 96.287 17.5108 97.4839 17.05ZM97.9839 22.407C97.9222 23.4276 98.2527 24.4331 98.9079 25.218C99.1963 25.5435 99.552 25.8024 99.9503 25.9768C100.349 26.1512 100.78 26.2369 101.215 26.228C101.636 26.2384 102.054 26.1569 102.44 25.9892C102.826 25.8215 103.17 25.5716 103.45 25.257C104.088 24.469 104.405 23.4687 104.336 22.457C104.381 21.516 104.058 20.5943 103.436 19.887C103.147 19.5709 102.794 19.3206 102.401 19.153C102.007 18.9855 101.582 18.9046 101.154 18.916C100.696 18.8841 100.238 18.9682 99.8209 19.1605C99.4042 19.3527 99.0427 19.647 98.7699 20.016C98.2591 20.7087 97.9827 21.5463 97.9809 22.407H97.9839ZM98.3839 12.655C98.3619 13.0263 98.4158 13.3981 98.5424 13.7478C98.6689 14.0976 98.8654 14.4178 99.1199 14.689C99.3814 14.9366 99.6903 15.1289 100.028 15.2541C100.366 15.3794 100.725 15.4351 101.085 15.418C101.449 15.4352 101.812 15.3788 102.154 15.2522C102.496 15.1255 102.808 14.9313 103.073 14.681C103.329 14.4092 103.528 14.0879 103.656 13.7367C103.783 13.3856 103.838 13.0121 103.817 12.639C103.841 12.2794 103.789 11.9187 103.663 11.5811C103.537 11.2434 103.34 10.9366 103.086 10.681C102.832 10.4254 102.526 10.227 102.189 10.0991C101.852 9.97112 101.492 9.91655 101.132 9.93901C100.766 9.92152 100.399 9.97853 100.056 10.1066C99.7118 10.2346 99.3976 10.4311 99.1319 10.684C98.8803 10.9447 98.6843 11.2539 98.5559 11.5927C98.4274 11.9316 98.3683 12.293 98.3839 12.655Z" fill="white"/>
</svg>
